<svg width="215" height="97" viewBox="0 0 215 97" fill="none" xmlns="http://www.w3.org/2000/svg">
<g id="Frame" clip-path="url(#clip0_1_290)">
<g id="Group">
<g id="Group_2">
<path id="Vector" d="M0 92.489V78.3594H4.57632V80.3409C5.02379 79.7213 5.62249 79.1912 6.37129 78.7489C7.12009 78.3071 8.04326 78.0859 9.13909 78.0859C9.61422 78.0859 10.0984 78.1704 10.5915 78.3392C11.0847 78.5074 11.5486 78.7579 11.9825 79.0905C12.4164 79.423 12.7843 79.8355 13.0857 80.3274C13.5422 79.7078 14.1403 79.1794 14.8806 78.7421C15.6204 78.3048 16.4471 78.0859 17.3607 78.0859C17.8905 78.0859 18.4294 78.1799 18.9773 78.3662C19.5258 78.553 20.0258 78.8445 20.4777 79.2407C20.9297 79.6374 21.2954 80.1541 21.5741 80.7917C21.8523 81.4298 21.9917 82.2087 21.9917 83.1288V92.489H17.3195V83.7433C17.3195 83.297 17.2213 82.9352 17.0249 82.6572C16.8285 82.3792 16.5797 82.1743 16.2784 82.0421C15.9765 81.9104 15.6616 81.844 15.3326 81.844C15.0223 81.844 14.7114 81.9082 14.401 82.0353C14.0901 82.1631 13.83 82.3589 13.62 82.6228C13.4096 82.8873 13.3046 83.2244 13.3046 83.6341V92.489H8.64591V83.566C8.64591 83.1924 8.54773 82.8783 8.35136 82.6228C8.15499 82.3679 7.9084 82.1743 7.61158 82.0421C7.31477 81.9104 7.00611 81.844 6.68673 81.844C6.37581 81.844 6.0632 81.9104 5.74776 82.0421C5.4329 82.1743 5.17276 82.3724 4.9668 82.6369C4.7614 82.9008 4.6587 83.2334 4.6587 83.6341V92.489H0Z" fill="black"/>
<path id="Vector_2" d="M31.3204 92.7625C29.895 92.7625 28.6575 92.4598 27.6069 91.8537C26.5567 91.2482 25.7436 90.4006 25.168 89.3123C24.5925 88.2234 24.3047 86.9549 24.3047 85.5064C24.3047 84.0303 24.5992 82.7348 25.1884 81.6183C25.778 80.503 26.6002 79.6352 27.6548 79.0156C28.71 78.396 29.9407 78.0859 31.3475 78.0859C32.7819 78.0859 34.0216 78.3983 35.0678 79.0224C36.114 79.6464 36.922 80.5165 37.4931 81.6324C38.0641 82.7483 38.3496 84.0399 38.3496 85.5064C38.3496 86.9183 38.0664 88.1688 37.4998 89.2571C36.9333 90.3461 36.1252 91.2026 35.0745 91.8267C34.0239 92.4508 32.7728 92.7625 31.3204 92.7625ZM31.3475 89.346C31.9778 89.346 32.4715 89.148 32.8276 88.7518C33.1836 88.3556 33.4347 87.8497 33.5809 87.2352C33.727 86.6201 33.8004 85.9937 33.8004 85.3561C33.8004 84.7275 33.7321 84.1125 33.595 83.5114C33.4579 82.9099 33.2113 82.4158 32.8552 82.0286C32.4986 81.6414 31.9964 81.4478 31.3475 81.4478C30.6991 81.4478 30.1946 81.6369 29.8335 82.0151C29.4729 82.3932 29.219 82.8806 29.0734 83.4771C28.9267 84.0736 28.8539 84.7 28.8539 85.3561C28.8539 85.9757 28.9222 86.5925 29.0593 87.2076C29.1964 87.8227 29.4453 88.3331 29.8064 88.7383C30.167 89.1435 30.6811 89.346 31.3475 89.346Z" fill="black"/>
<path id="Vector_3" d="M44.4613 92.489L39.0352 78.3594H43.2142L46.0097 86.463H46.0779L48.791 78.3594H53.0389L47.6128 92.489H44.4613Z" fill="black"/>
<path id="Vector_4" d="M61.0573 92.7625C59.6229 92.7625 58.3601 92.4665 57.2688 91.8745C56.1769 91.2819 55.3271 90.4485 54.7199 89.3736C54.1122 88.2988 53.8086 87.0371 53.8086 85.5886C53.8086 84.2126 54.0851 82.9577 54.6375 81.8237C55.1905 80.6892 55.9918 79.7832 57.0425 79.1045C58.0926 78.4258 59.3583 78.0859 60.8378 78.0859C62.336 78.0859 63.5876 78.3983 64.5926 79.0224C65.597 79.6464 66.3531 80.503 66.8598 81.5913C67.3671 82.6802 67.6205 83.9256 67.6205 85.3286V86.4901H58.399C58.39 87.1372 58.4899 87.6814 58.7003 88.1232C58.9103 88.5649 59.2076 88.8998 59.5908 89.1277C59.9745 89.3556 60.422 89.4693 60.9338 89.4693C61.5184 89.4693 62.0369 89.3483 62.4889 89.1069C62.9409 88.866 63.2721 88.4445 63.4826 87.8429H67.6481C67.4924 88.8728 67.0839 89.754 66.4214 90.4873C65.7589 91.2206 64.9531 91.7833 64.0029 92.175C63.0532 92.5667 62.0714 92.7625 61.0573 92.7625ZM58.3855 83.8119H63.2908C63.2908 83.3471 63.1994 82.9217 63.0165 82.5339C62.8337 82.1473 62.5623 81.8395 62.2011 81.6116C61.8406 81.3842 61.3858 81.27 60.8378 81.27C60.3537 81.27 59.9265 81.391 59.5569 81.6324C59.1868 81.8738 58.899 82.1878 58.6936 82.575C58.4882 82.9627 58.3855 83.3747 58.3855 83.8119Z" fill="black"/>
<path id="Vector_5" d="M72.3444 96.9983C71.3123 96.9983 70.3576 96.816 69.4807 96.4519V93.5002L70.8508 93.5689C71.5087 93.6139 72.0295 93.5914 72.4127 93.5002C72.7964 93.4091 73.0842 93.2836 73.276 93.1243C73.4679 92.965 73.5982 92.8058 73.6665 92.646C73.7354 92.4867 73.7782 92.3753 73.7969 92.3117L73.9611 91.7788L68.4531 78.3594H73.0571L76.0986 86.8046L79.2094 78.3594H83.7722L78.1407 92.1204C77.5832 93.4591 77.0076 94.4817 76.414 95.1879C75.8198 95.8936 75.1878 96.372 74.5163 96.6229C73.8448 96.8734 73.1209 96.9983 72.3444 96.9983Z" fill="black"/>
<path id="Vector_6" d="M91.8034 92.7625C90.369 92.7625 89.1062 92.4665 88.0149 91.8745C86.923 91.2819 86.0732 90.4485 85.466 89.3736C84.8583 88.2988 84.5547 87.0371 84.5547 85.5886C84.5547 84.2126 84.8312 82.9577 85.3836 81.8237C85.9366 80.6892 86.7379 79.7832 87.7886 79.1045C88.8387 78.4258 90.1044 78.0859 91.5839 78.0859C93.0821 78.0859 94.3337 78.3983 95.3387 79.0224C96.3431 79.6464 97.0992 80.503 97.6059 81.5913C98.1132 82.6802 98.3666 83.9256 98.3666 85.3286V86.4901H89.1451C89.1361 87.1372 89.236 87.6814 89.4464 88.1232C89.6564 88.5649 89.9537 88.8998 90.3369 89.1277C90.7206 89.3556 91.1681 89.4693 91.6799 89.4693C92.2645 89.4693 92.783 89.3483 93.235 89.1069C93.687 88.866 94.0182 88.4445 94.2287 87.8429H98.3942C98.2385 88.8728 97.83 89.754 97.1675 90.4873C96.505 91.2206 95.6992 91.7833 94.749 92.175C93.7993 92.5667 92.8175 92.7625 91.8034 92.7625ZM89.1316 83.8119H94.0369C94.0369 83.3471 93.9454 82.9217 93.7626 82.5339C93.5798 82.1473 93.3084 81.8395 92.9472 81.6116C92.5867 81.3842 92.1318 81.27 91.5839 81.27C91.0998 81.27 90.6726 81.391 90.303 81.6324C89.9328 81.8738 89.6451 82.1878 89.4397 82.575C89.2343 82.9627 89.1316 83.3747 89.1316 83.8119Z" fill="black"/>
<path id="Vector_7" d="M105.931 92.7634C104.753 92.7634 103.828 92.6312 103.156 92.3673C102.485 92.1028 101.993 91.7589 101.683 91.3352C101.372 90.912 101.178 90.4404 101.1 89.921C101.023 89.4016 100.984 88.8872 100.984 88.3768V72.1836H105.547V87.7758C105.547 88.204 105.647 88.5749 105.848 88.8895C106.049 89.2035 106.483 89.4016 107.15 89.4837L107.767 89.5248V92.3808C107.474 92.4809 107.173 92.5699 106.862 92.647C106.552 92.7246 106.241 92.7634 105.931 92.7634Z" fill="black"/>
<path id="Vector_8" d="M114.853 92.7634C113.675 92.7634 112.75 92.6312 112.078 92.3673C111.407 92.1028 110.915 91.7589 110.605 91.3352C110.294 90.912 110.1 90.4404 110.022 89.921C109.945 89.4016 109.906 88.8872 109.906 88.3768V72.1836H114.469V87.7758C114.469 88.204 114.569 88.5749 114.77 88.8895C114.971 89.2035 115.405 89.4016 116.072 89.4837L116.689 89.5248V92.3808C116.396 92.4809 116.095 92.5699 115.784 92.647C115.474 92.7246 115.163 92.7634 114.853 92.7634Z" fill="black"/>
<path id="Vector_9" d="M124.746 92.7625C123.321 92.7625 122.083 92.4598 121.033 91.8537C119.983 91.2482 119.169 90.4006 118.594 89.3123C118.018 88.2234 117.73 86.9549 117.73 85.5064C117.73 84.0303 118.025 82.7348 118.614 81.6183C119.204 80.503 120.026 79.6352 121.081 79.0156C122.136 78.396 123.367 78.0859 124.773 78.0859C126.208 78.0859 127.447 78.3983 128.494 79.0224C129.54 79.6464 130.348 80.5165 130.919 81.6324C131.49 82.7483 131.775 84.0399 131.775 85.5064C131.775 86.9183 131.492 88.1688 130.926 89.2571C130.359 90.3461 129.551 91.2026 128.5 91.8267C127.45 92.4508 126.199 92.7625 124.746 92.7625ZM124.773 89.346C125.404 89.346 125.897 89.148 126.253 88.7518C126.609 88.3556 126.861 87.8497 127.007 87.2352C127.153 86.6201 127.226 85.9937 127.226 85.3561C127.226 84.7275 127.158 84.1125 127.021 83.5114C126.884 82.9099 126.637 82.4158 126.281 82.0286C125.924 81.6414 125.422 81.4478 124.773 81.4478C124.125 81.4478 123.62 81.6369 123.259 82.0151C122.899 82.3932 122.645 82.8806 122.499 83.4771C122.352 84.0736 122.28 84.7 122.28 85.3561C122.28 85.9757 122.348 86.5925 122.485 87.2076C122.622 87.8227 122.871 88.3331 123.232 88.7383C123.593 89.1435 124.107 89.346 124.773 89.346Z" fill="black"/>
<path id="Vector_10" d="M137.186 92.489L132.5 78.3594H136.597L139.05 86.176H139.105L141.448 78.3594H144.722L147.052 86.1895H147.107L149.518 78.3594H153.711L148.888 92.489H145.38L142.996 84.7821L140.571 92.489H137.186Z" fill="black"/>
<path id="Vector_11" d="M153.891 92.4915V87.6406H158.892V92.4915H153.891Z" fill="black"/>
<path id="Vector_12" d="M168.457 92.7625C167.123 92.7625 165.929 92.4643 164.874 91.8672C163.819 91.2707 162.987 90.426 162.38 89.3325C161.772 88.2391 161.469 86.9594 161.469 85.4929C161.469 84.0258 161.766 82.7393 162.36 81.6324C162.953 80.5255 163.776 79.6577 164.826 79.0291C165.876 78.4005 167.087 78.0859 168.457 78.0859C169.717 78.0859 170.793 78.3482 171.684 78.8721C172.574 79.396 173.264 80.0927 173.753 80.9627C174.241 81.8327 174.509 82.7827 174.554 83.8119H170.731C170.686 83.4929 170.581 83.1608 170.417 82.8142C170.252 82.4681 170.016 82.1743 169.711 81.9329C169.405 81.6915 169 81.5711 168.498 81.5711C167.685 81.5711 167.03 81.8918 166.532 82.5339C166.034 83.1766 165.785 84.1445 165.785 85.4377C165.785 86.7135 166.038 87.7113 166.546 88.4305C167.052 89.1502 167.731 89.5104 168.58 89.5104C169.074 89.5104 169.475 89.3781 169.786 89.1136C170.097 88.8497 170.33 88.5447 170.485 88.1986C170.64 87.8525 170.736 87.5469 170.773 87.283H174.5C174.472 88.2757 174.21 89.1868 173.712 90.0157C173.214 90.8447 172.52 91.5098 171.629 92.0107C170.738 92.5115 169.681 92.7625 168.457 92.7625Z" fill="black"/>
<path id="Vector_13" d="M183.5 92.7625C182.075 92.7625 180.837 92.4598 179.787 91.8537C178.736 91.2482 177.923 90.4006 177.348 89.3123C176.772 88.2234 176.484 86.9549 176.484 85.5064C176.484 84.0303 176.779 82.7348 177.368 81.6183C177.958 80.503 178.78 79.6352 179.835 79.0156C180.89 78.396 182.12 78.0859 183.527 78.0859C184.962 78.0859 186.201 78.3983 187.247 79.0224C188.294 79.6464 189.102 80.5165 189.673 81.6324C190.244 82.7483 190.529 84.0399 190.529 85.5064C190.529 86.9183 190.246 88.1688 189.68 89.2571C189.113 90.3461 188.305 91.2026 187.254 91.8267C186.204 92.4508 184.953 92.7625 183.5 92.7625ZM183.527 89.346C184.157 89.346 184.651 89.148 185.007 88.7518C185.363 88.3556 185.614 87.8497 185.761 87.2352C185.907 86.6201 185.98 85.9937 185.98 85.3561C185.98 84.7275 185.912 84.1125 185.775 83.5114C185.638 82.9099 185.391 82.4158 185.035 82.0286C184.678 81.6414 184.176 81.4478 183.527 81.4478C182.879 81.4478 182.374 81.6369 182.013 82.0151C181.653 82.3932 181.399 82.8806 181.253 83.4771C181.106 84.0736 181.034 84.7 181.034 85.3561C181.034 85.9757 181.102 86.5925 181.239 87.2076C181.376 87.8227 181.625 88.3331 181.986 88.7383C182.347 89.1435 182.861 89.346 183.527 89.346Z" fill="black"/>
<path id="Vector_14" d="M193.008 92.489V78.3594H197.584V80.3409C198.032 79.7213 198.63 79.1912 199.379 78.7489C200.128 78.3071 201.051 78.0859 202.147 78.0859C202.622 78.0859 203.106 78.1704 203.599 78.3392C204.093 78.5074 204.556 78.7579 204.99 79.0905C205.424 79.423 205.792 79.8355 206.093 80.3274C206.55 79.7078 207.148 79.1794 207.888 78.7421C208.628 78.3048 209.455 78.0859 210.368 78.0859C210.898 78.0859 211.437 78.1799 211.985 78.3662C212.534 78.553 213.034 78.8445 213.486 79.2407C213.938 79.6374 214.303 80.1541 214.582 80.7917C214.86 81.4298 215 82.2087 215 83.1288V92.489H210.327V83.7433C210.327 83.297 210.229 82.9352 210.033 82.6572C209.836 82.3792 209.588 82.1743 209.286 82.0421C208.984 81.9104 208.669 81.844 208.34 81.844C208.03 81.844 207.719 81.9082 207.409 82.0353C207.098 82.1631 206.838 82.3589 206.628 82.6228C206.417 82.8873 206.312 83.2244 206.312 83.6341V92.489H201.654V83.566C201.654 83.1924 201.556 82.8783 201.359 82.6228C201.163 82.3679 200.916 82.1743 200.619 82.0421C200.323 81.9104 200.014 81.844 199.695 81.844C199.384 81.844 199.071 81.9104 198.756 82.0421C198.441 82.1743 198.181 82.3724 197.975 82.6369C197.769 82.9008 197.667 83.2334 197.667 83.6341V92.489H193.008Z" fill="black"/>
</g>
<g id="Group_3">
<path id="Vector_15" d="M137.745 51.1796L137.725 51.1051C137.148 48.959 138.089 46.6943 140.018 45.5831L159.283 34.4862C160.305 33.8974 160.655 32.5939 160.065 31.5746L157.784 27.6355C157.194 26.6161 155.887 26.267 154.864 26.8556L135.587 37.9571C133.66 39.067 131.225 38.7475 129.652 37.178L129.598 37.125C128.025 35.5555 127.704 33.1276 128.817 31.2055L139.949 11.9804C140.539 10.9611 140.189 9.65758 139.167 9.0689L135.217 6.79416C134.195 6.20542 132.888 6.55465 132.298 7.57416L121.175 26.7871C120.061 28.7112 117.79 29.6495 115.638 29.0747L115.561 29.054C113.413 28.4805 111.92 26.54 111.92 24.3229V2.13139C111.92 0.954256 110.963 0 109.783 0H105.22C104.039 0 103.083 0.954256 103.083 2.13139V24.3245C103.083 26.5406 101.59 28.4803 99.4436 29.0537L99.3689 29.0737C97.217 29.6485 94.9461 28.7106 93.8319 26.7867L82.7049 7.5737C82.1146 6.5544 80.8075 6.20532 79.7854 6.794L75.8356 9.06891C74.8135 9.65758 74.4634 10.9611 75.0536 11.9804L86.1881 31.2106C87.2993 33.1297 86.9794 35.5539 85.4081 37.1209L85.3467 37.1821C83.7754 38.7491 81.3447 39.0682 79.4203 37.96L60.138 26.8556C59.1159 26.267 57.8088 26.6161 57.2185 27.6355L54.9374 31.5746C54.3472 32.5939 54.6972 33.8974 55.7193 34.4862L74.9937 45.5885C76.9174 46.6965 77.8552 48.9547 77.2804 51.0947L77.2579 51.1785C76.6828 53.3198 74.7372 54.8088 72.5144 54.8088H50.2622C49.0818 54.8088 48.125 55.763 48.125 56.9402V61.4906C48.125 62.6678 49.0818 63.622 50.2622 63.622H83.0102C84.2742 63.622 85.2482 62.5359 85.1335 61.2806C84.9923 59.7357 85.0074 58.145 85.1972 56.533C86.5166 45.3248 96.2409 36.7872 107.557 36.8146C119.916 36.8445 129.963 46.8823 129.963 59.2154C129.963 59.9119 129.931 60.6016 129.869 61.2824C129.754 62.5371 130.729 63.622 131.992 63.622H164.74C165.921 63.622 166.877 62.6678 166.877 61.4906V56.9402C166.877 55.763 165.921 54.8088 164.74 54.8088H142.487C140.265 54.8088 138.32 53.3202 137.745 51.1796Z" fill="black"/>
<path id="Vector_16" d="M123.502 58.2533C123.573 59.4781 123.509 60.6778 123.316 61.8337C123.144 62.8651 122.25 63.6226 121.202 63.6226H93.8012C92.7563 63.6226 91.8608 62.8705 91.6888 61.8427C91.5458 60.9885 91.4727 60.1104 91.4727 59.2159C91.4727 50.0029 99.2855 42.6115 108.665 43.2715C116.614 43.8308 123.042 50.3194 123.502 58.2533Z" fill="black"/>
</g>
</g>
</g>
<defs>
<clipPath id="clip0_1_290">
<rect width="215" height="97" fill="white"/>
</clipPath>
</defs>
</svg>
