<svg width="181" height="62" viewBox="0 0 181 62" fill="none" xmlns="http://www.w3.org/2000/svg">
<path id="Vector" d="M173.319 35.5421L160.578 32.4115C160.095 32.2942 159.64 32.0656 159.255 31.7431L147.503 21.9409C145.518 20.2876 143.027 19.379 140.456 19.379H130.102C128.513 19.379 127.226 20.6914 127.226 22.3103V42.6124C127.226 44.5551 125.68 46.1299 123.774 46.1299H49.8627C51.9678 48.1114 53.2851 50.9431 53.2851 54.0855C53.2851 54.3045 53.2788 54.5222 53.266 54.7384C53.2254 55.425 53.7341 56.0142 54.4091 56.0142H146.075C146.749 56.0142 147.258 55.427 147.217 54.7415C147.202 54.4845 147.196 54.2254 147.198 53.9646C147.256 48.6509 151.193 44.0569 156.359 43.3423C162.882 42.4402 168.481 47.6097 168.481 54.0855C168.481 54.3044 168.475 54.522 168.462 54.7381C168.422 55.4249 168.93 56.0142 169.605 56.0142H176.161C178.385 56.0142 180.188 54.1768 180.188 51.9104V44.2539C180.188 40.0621 177.328 36.439 173.319 35.5421ZM149.418 34.6452H136.654C135.285 34.6452 134.174 33.5136 134.174 32.1184V27.0706C134.174 25.6753 135.285 24.5438 136.654 24.5438H140.951C142.481 24.5438 143.953 25.1594 145.047 26.2499L150.575 31.7607C151.633 32.816 150.897 34.6452 149.418 34.6452ZM177.242 46.9682C177.242 47.8243 176.563 48.516 175.724 48.516H174.021C173.193 48.516 172.474 47.9181 172.318 47.0855L171.985 45.3384C171.778 44.2481 172.6 43.228 173.693 43.228H175.724C176.563 43.228 177.242 43.9256 177.242 44.7756V46.9682ZM157.84 46.171C153.554 46.171 150.074 49.7119 150.074 54.0855C150.074 58.4531 153.554 62 157.84 62C162.131 62 165.605 58.4531 165.605 54.0855C165.605 49.7119 162.131 46.171 157.84 46.171ZM157.84 56.9346C156.298 56.9346 155.044 55.6566 155.044 54.0855C155.044 52.5084 156.298 51.2362 157.84 51.2362C159.387 51.2362 160.635 52.5084 160.635 54.0855C160.635 55.6566 159.387 56.9346 157.84 56.9346ZM42.6433 46.171C38.358 46.171 34.8777 49.7119 34.8777 54.0855C34.8777 58.4531 38.358 62 42.6433 62C46.9345 62 50.409 58.4531 50.409 54.0855C50.409 49.7119 46.9345 46.171 42.6433 46.171ZM42.6433 56.9346C41.1019 56.9346 39.8478 55.6566 39.8478 54.0855C39.8478 52.5084 41.1019 51.2362 42.6433 51.2362C44.191 51.2362 45.4392 52.5084 45.4392 54.0855C45.4392 55.6566 44.191 56.9346 42.6433 56.9346ZM32.0015 54.0855C32.0015 54.3044 32.0079 54.522 32.0207 54.7381C32.0614 55.4249 31.5527 56.0142 30.8777 56.0142H7.23786C5.64939 56.0142 4.3617 54.7018 4.3617 53.0829V49.0612C4.3617 47.4423 5.64939 46.1299 7.23786 46.1299H35.4243C33.3188 48.1114 32.0015 50.9431 32.0015 54.0855ZM143.094 7.03511V13.2784C143.094 14.8973 141.806 16.2097 140.218 16.2097H127.786C125.88 16.2097 124.335 17.7846 124.335 19.7273V40.2554C124.335 41.8743 123.047 43.1867 121.458 43.1867H4.02663C1.80279 43.1867 0 41.3494 0 39.0829V7.03511C0 3.14974 3.0905 0 6.9028 0H136.191C140.003 -1.16981e-07 143.094 3.14974 143.094 7.03511Z" fill="black"/>
</svg>
