<svg width="131" height="55" viewBox="0 0 131 55" fill="none" xmlns="http://www.w3.org/2000/svg">
<path id="Vector" d="M21.8441 42.563C21.2299 43.9586 20.8934 45.4963 20.8934 47.1168C20.8934 47.282 20.8967 47.4462 20.9034 47.6095C20.9307 48.2732 20.3877 48.8201 19.7244 48.8201H10.7183C6.93888 48.8201 3.77942 46.1351 3.05306 42.563H21.8441ZM99.8488 42.563H71.3049H42.761C43.3752 43.9586 43.7117 45.4963 43.7117 47.1168C43.7117 47.2835 43.7083 47.4497 43.7015 47.6152C43.6741 48.2789 44.2173 48.8258 44.8806 48.8258L71.3049 48.8258L97.7293 48.8258C98.3926 48.8258 98.9358 48.2789 98.9084 47.6151C98.9016 47.4497 98.8981 47.2835 98.8981 47.1168C98.8981 45.4963 99.2346 43.9586 99.8488 42.563ZM121.723 47.1168C121.723 47.2775 121.719 47.4377 121.713 47.5973C121.686 48.2611 122.228 48.8082 122.892 48.8082H123.163C126.949 48.8201 130.102 46.1351 130.841 42.563H120.772C121.386 43.9586 121.723 45.4963 121.723 47.1168ZM131 34.4135V39.606H118.894C116.803 37.2049 113.733 35.6909 110.307 35.6909C106.888 35.6909 103.811 37.2049 101.727 39.606H40.8891C38.7985 37.2049 35.7279 35.6909 32.3026 35.6909C28.8833 35.6909 25.8066 37.2049 23.7221 39.606H2.8936V37.2699H2.56287C1.14533 37.2699 0 36.1167 0 34.6974V30.0608C0 28.6415 1.14533 27.4942 2.56287 27.4942H2.8936V7.84195C2.8936 3.51295 6.39534 0 10.7183 0H83.3906C88.7643 0 93.9198 2.11126 97.7583 5.87262L114.063 21.8463C114.878 22.6447 115.782 23.3426 116.756 23.928L128.514 30.2501C130.049 31.072 131 32.6747 131 34.4135ZM103.144 18.6527L96.1579 11.8162C94.7762 10.456 92.916 9.69895 90.9789 9.69895H87.5714C85.8471 9.69895 84.4417 11.1006 84.4417 12.8334V19.1022C84.4417 20.835 85.8471 22.2425 87.5714 22.2425H101.68C103.552 22.2425 104.479 19.9656 103.144 18.6527ZM128.431 34.4903C128.431 33.1715 127.356 32.0951 126.039 32.0951H124.037C122.981 32.0951 122.266 33.1893 122.697 34.1593L123.512 35.8802C123.796 36.4834 124.404 36.8678 125.071 36.8678H127.126C127.847 36.8678 128.431 36.2823 128.431 35.5608V34.4903ZM40.1803 47.1168C40.1803 51.4695 36.6549 55 32.3026 55C27.9562 55 24.4306 51.4695 24.4306 47.1168C24.4306 42.764 27.9562 39.2334 32.3026 39.2334C36.6549 39.2334 40.1803 42.764 40.1803 47.1168ZM35.4384 47.1168C35.4384 45.384 34.0329 43.9823 32.3026 43.9823C30.5782 43.9823 29.1728 45.384 29.1728 47.1168C29.1728 48.8495 30.5782 50.2512 32.3026 50.2512C34.0329 50.2512 35.4384 48.8495 35.4384 47.1168ZM118.185 47.1168C118.185 51.4695 114.66 55 110.307 55C105.961 55 102.436 51.4695 102.436 47.1168C102.436 42.764 105.961 39.2334 110.307 39.2334C114.66 39.2334 118.185 42.764 118.185 47.1168ZM113.443 47.1168C113.443 45.384 112.038 43.9823 110.307 43.9823C108.583 43.9823 107.178 45.384 107.178 47.1168C107.178 48.8495 108.583 50.2512 110.307 50.2512C112.038 50.2512 113.443 48.8495 113.443 47.1168Z" fill="black"/>
</svg>
