<svg width="135" height="62" viewBox="0 0 135 62" fill="none" xmlns="http://www.w3.org/2000/svg">
<path id="Vector" d="M5.53921 49.5729V52.2589C5.53921 53.2306 6.33764 54.0183 7.32253 54.0183H22.9039C23.4911 54.0183 23.9796 53.5921 24.0731 53.0201C24.3972 51.0373 25.3011 49.2376 26.6119 47.8135H7.32253C6.33567 47.8135 5.53921 48.6053 5.53921 49.5729ZM86.5847 47.8135H42.0672C43.3782 49.2376 44.2819 51.0373 44.6059 53.0201C44.6994 53.5921 45.188 54.0183 45.7752 54.0183H85.9903C86.971 54.0183 87.7736 53.2325 87.7736 52.2589V48.9864C87.7736 48.3413 87.2386 47.8135 86.5847 47.8135ZM41.77 54.6692C41.77 58.7218 38.4414 62 34.3395 62C30.238 62 26.909 58.7218 26.909 54.6692C26.909 50.6227 30.238 47.3384 34.3395 47.3384C38.4414 47.3384 41.77 50.6227 41.77 54.6692ZM37.0145 54.6692C37.0145 53.2148 35.8137 52.0301 34.3395 52.0301C32.8595 52.0301 31.6646 53.2148 31.6646 54.6692C31.6646 56.1296 32.8595 57.3083 34.3395 57.3083C35.8137 57.3083 37.0145 56.1296 37.0145 54.6692ZM135 43.4561V48.7636C135 51.7253 132.575 54.1297 129.567 54.1297H125.07C124.478 54.1297 123.988 53.6959 123.898 53.1179C123.137 48.1986 118.813 44.4061 113.612 44.4061C108.405 44.4061 104.086 48.1993 103.326 53.1242C103.237 53.702 102.747 54.1359 102.155 54.1363L94.311 54.1414C92.3372 54.1414 90.7443 52.5639 90.7443 50.6227V16.8717C90.7443 14.9364 92.3493 13.3529 94.311 13.3529H97.1046C99.3576 13.3529 103.275 14.8425 106.039 17.511L108.102 19.4991L121.673 32.6007L132.515 39.0928C134.061 40.0194 135 41.6732 135 43.4561ZM111.401 28.337L105.242 22.3904C104.024 21.2174 102.383 20.5547 100.677 20.5547H97.6753C96.1477 20.5547 94.9112 21.7746 94.9112 23.2818V28.7241C94.9112 30.2313 96.1477 31.4512 97.6753 31.4512H110.111C111.764 31.4512 112.578 29.4748 111.401 28.337ZM131.832 43.5851C131.832 42.16 130.661 41.0106 129.222 41.0106H127.04C125.881 41.0106 125.108 42.1835 125.578 43.2274L126.47 45.0747C126.779 45.7199 127.445 46.1363 128.17 46.1363H130.405C131.19 46.1363 131.832 45.5087 131.832 44.7345V43.5851ZM121.043 54.6692C121.043 58.7218 117.72 62 113.612 62C109.511 62 106.182 58.7218 106.182 54.6692C106.182 50.6227 109.511 47.3384 113.612 47.3384C117.72 47.3384 121.043 50.6227 121.043 54.6692ZM116.287 54.6692C116.287 53.2148 115.092 52.0301 113.612 52.0301C112.138 52.0301 110.937 53.2148 110.937 54.6692C110.937 56.1296 112.138 57.3083 113.612 57.3083C115.092 57.3083 116.287 56.1296 116.287 54.6692ZM87.7721 43.6847V7.01887C87.7721 3.14245 84.587 0 80.6578 0H7.1143C3.18518 0 0 3.14245 0 7.01887V40.7602C0 43.0214 1.85802 44.8545 4.15001 44.8545H86.5864C87.2413 44.8545 87.7721 44.3308 87.7721 43.6847Z" fill="black"/>
</svg>
