<svg width="131" height="62" viewBox="0 0 131 62" fill="none" xmlns="http://www.w3.org/2000/svg">
<path id="Vector" d="M108.514 47.3394C104.432 47.3394 101.129 50.6174 101.129 54.6697C101.129 58.716 104.432 62 108.514 62C112.59 62 115.899 58.716 115.899 54.6697C115.899 50.6174 112.59 47.3394 108.514 47.3394ZM108.514 57.3086C107.043 57.3086 105.855 56.124 105.855 54.6697C105.855 53.2095 107.043 52.0308 108.514 52.0308C109.979 52.0308 111.173 53.2095 111.173 54.6697C111.173 56.124 109.979 57.3086 108.514 57.3086ZM37.6174 47.3394C33.5351 47.3394 30.2323 50.6174 30.2323 54.6697C30.2323 58.716 33.5351 62 37.6174 62C41.6939 62 45.0024 58.716 45.0024 54.6697C45.0024 50.6174 41.6939 47.3394 37.6174 47.3394ZM37.6174 57.3086C36.1464 57.3086 34.9588 56.124 34.9588 54.6697C34.9588 53.2095 36.1464 52.0308 37.6174 52.0308C39.0826 52.0308 40.276 53.2095 40.276 54.6697C40.276 56.124 39.0826 57.3086 37.6174 57.3086ZM10.5232 47.8144C9.54839 47.8144 8.75074 48.6001 8.75074 49.5737V52.2594C8.75074 53.233 9.54839 54.0187 10.5232 54.0187H26.2515C26.8352 54.0187 27.3208 53.5925 27.4138 53.0205C27.7358 51.0391 28.6334 49.2433 29.9311 47.8144H10.5232ZM122.392 21.7302C121.004 19.619 117.825 17.6896 115.296 17.4258L101.661 16.0125C99.3801 15.772 97.3951 17.5489 97.3951 19.83V44.2958C97.3951 46.2391 95.808 47.8144 93.8503 47.8144H45.3039C46.6014 49.2433 47.499 51.0391 47.821 53.0205C47.914 53.5925 48.3995 54.0187 48.9832 54.0187H97.148C97.7328 54.0187 98.2178 53.5909 98.3113 53.0179C99.1072 48.1437 103.378 44.4072 108.514 44.4072C113.65 44.4072 117.921 48.1437 118.717 53.0179C118.81 53.5909 119.295 54.0187 119.88 54.0187H126.864C129.151 54.0187 131 52.1774 131 49.9137V45.2693C131 33.4879 122.392 21.7302 122.392 21.7302ZM122.623 37.1883L120.425 37.247C119.426 37.247 118.44 37.0652 117.512 36.7075L105.956 32.2506C104.845 31.8167 104.113 30.7552 104.113 29.5706V24.6915C104.113 23.3546 105.271 22.299 106.617 22.428L114.375 23.1493C118.599 23.5656 120.366 27.5534 121.376 29.8053C121.742 30.6262 122.912 33.1362 123.869 35.1886C124.3 36.1094 123.639 37.159 122.623 37.1883ZM128.005 46.0493C128.005 46.7706 127.42 47.3511 126.699 47.3511H125.446C124.962 47.3511 124.572 46.9582 124.572 46.4773L124.17 43.3516C124.17 42.8707 124.566 42.4837 125.051 42.4837H126.699C127.42 42.4837 128.005 43.0643 128.005 43.7797V46.0493ZM91.4231 44.8839H4.12491C1.84679 44.8839 0 43.0508 0 40.7896V7.01887C0 3.14246 3.16592 0 7.07128 0H87.2982C91.2035 0 94.3694 3.14246 94.3694 7.01887V41.9594C94.3694 43.5745 93.0503 44.8839 91.4231 44.8839Z" fill="black"/>
</svg>
